<svg width="45" height="74" viewBox="0 0 45 74" fill="none" xmlns="http://www.w3.org/2000/svg">
<path d="M37.6265 0.739502H7.43896C3.88115 0.739502 0.970215 3.81919 0.970215 7.58325V66.8958C0.970215 70.6598 3.88115 73.7395 7.43896 73.7395H37.6265C41.1843 73.7395 44.0952 70.6598 44.0952 66.8958V7.58325C44.0952 3.81919 41.1843 0.739502 37.6265 0.739502ZM22.5327 69.177C20.1479 69.177 18.2202 67.1376 18.2202 64.6145C18.2202 62.0914 20.1479 60.052 22.5327 60.052C24.9175 60.052 26.8452 62.0914 26.8452 64.6145C26.8452 67.1376 24.9175 69.177 22.5327 69.177ZM39.7827 55.4895H5.28271V9.8645H39.7827V55.4895Z" fill="black"/>
</svg>
